<svg id="Calque_1" data-name="Calque 1" xmlns="http://www.w3.org/2000/svg" viewBox="0 0 1000 1000"><defs><style>.cls-1{fill:#1d601b;}.cls-2{fill:#fff;}.cls-3,.cls-4{fill:#298826;}.cls-4{font-size:172.01px;font-family:Hey-Comic, Hey Comic;}</style></defs><path class="cls-1" d="M397.67,96.89c-15.17-.32-25.24,14.36-22.48,32.77l4.14,27.74.74,4.94c2.75,18.41,17.27,32.67,32.43,31.86s25.22-15.78,22.47-33.44l-.73-4.74-4.13-26.59C427.37,111.77,412.85,97.2,397.67,96.89Z"/><path class="cls-1" d="M557.41,100.19c-15.17-.31-25.27,12.58-22.55,28.79L539,153.4l.73,4.35c2.73,16.21,17.22,28.69,32.38,27.88s25.24-14,22.53-29.46l-.73-4.14-4.08-23.29C587.08,113.29,572.58,100.5,557.41,100.19Z"/><path class="cls-2" d="M712,486,394,562q-25-149.5-50-299l318-32Q687,358.5,712,486Z"/><path class="cls-3" d="M648.08,158.14a59.52,59.52,0,0,0-29.08-5.4l-14.6.4a38.79,38.79,0,0,1,1.25,6.87c.28,3,1.08,15.45-7.49,25.58-13.15,15.55-35.4,10.34-36.82,10-15.35-3.86-27.26-17.32-30.58-34.32q-.3-3.12-.62-6.24l-83.62,2.49c.42,2.08.83,4.16,1.25,6.24.15,1.27,2.42,23.18-13.73,35.41-11.37,8.61-24.37,6.75-26.83,6.4C389.35,203,374.14,186.93,368.52,165c-.42-2.08-.83-4.16-1.25-6.24a47.58,47.58,0,0,0-15.63.43c-17.47,3.44-27.62,15.93-30.55,19.54-19.19,23.63-10.54,55.69-9.57,59.08l24.42,177.07q10.72,69.27,21.46,138.53c2.24,10.09,8.34,30.57,26.09,41.55s38.67,7,51.11,4.19c44.57-10,136.85-38.74,254.62-80.94a58.44,58.44,0,0,0,15.39-6.31A50.42,50.42,0,0,0,729,456.6L684.05,212.44C683.62,209,678.52,172.58,648.08,158.14ZM398.15,555.59l-8.58-58.25-33.81-229.7,293.66-28,41.64,232.94-225.47,63.9Z"/><path class="cls-1" d="M553.78,349.15a12.63,12.63,0,0,0,10.5,2.71l59.33-10.13a12.06,12.06,0,0,0,9.45-4.88,11.77,11.77,0,0,0,1.73-9l-8.1-43.89a13.14,13.14,0,0,0-15.7-10l-58.77,5.6a11.62,11.62,0,0,0-10.05,13.58l7.62,47.65A12.35,12.35,0,0,0,553.78,349.15Z"/><path class="cls-1" d="M510.73,355.3a15.78,15.78,0,0,0,1.75-10.38q-3.39-23.48-6.79-46.94a15,15,0,0,0-5.21-9.65c-6-4.86-13.32-2.72-13.92-2.53L411.47,293c-.59,0-8.78.59-12.81,7.67a15.7,15.7,0,0,0-1.37,11.62q3.69,25.53,7.39,51.05a14,14,0,0,0,17.44,12.81L498,363.18C498.73,363.11,506.74,362.3,510.73,355.3Z"/><path class="cls-1" d="M564,401.09a15.53,15.53,0,0,0-2.73,10.25q3.63,22.94,7.24,45.88a12.65,12.65,0,0,0,17.65,12.14l57.29-16.16a15.57,15.57,0,0,0,9.39-7,15.38,15.38,0,0,0,1.8-10.62l-7.81-42.33a12.9,12.9,0,0,0-5.6-8.55,13.12,13.12,0,0,0-11.43-1l-55.74,11.18A15.69,15.69,0,0,0,564,401.09Z"/><path class="cls-1" d="M513.47,412a21.66,21.66,0,0,0-13.67-2l-61.93,12.22c-.94.05-13.13.92-18.71,11a21,21,0,0,0-2.36,12.43l7.59,51.56a16.27,16.27,0,0,0,4.34,7.76c7.11,6.93,18.09,3.73,18.6,3.57l67.18-18.95a20.17,20.17,0,0,0,13.31-9.22A19.92,19.92,0,0,0,530,465.89l-5.91-40.83A22,22,0,0,0,513.47,412Z"/><path class="cls-1" d="M356.66,590a68,68,0,0,1-13.92-33.23q-26.25-171.48-52.51-343a10.34,10.34,0,0,0-20.46,1.49q27.23,173,54.44,346c1.41,10.62,5.24,25.89,16.23,39.94,21.07,26.93,59.57,38,99.22,29.95l252.21-77.24c5.74-1.15,9-7,7.38-12a9.51,9.51,0,0,0-12.36-5.53L434.66,614.3C432.55,614.7,383.31,623.17,356.66,590Z"/><text class="cls-4" transform="translate(6 856.85)">Daily Planify</text></svg>