<svg xmlns="http://www.w3.org/2000/svg" viewBox="0 0 2001 602"><defs><style>.cls-1{fill:#ccc;}.cls-2,.cls-3{fill:#fff;}.cls-3{font-size:244.95px;font-family:Hey-Comic, Hey Comic;}</style></defs><g id="Calque_5" data-name="Calque 5"><path class="cls-1" d="M155.75,71.32c-13-.27-21.6,12.29-19.24,28l3.54,23.73.63,4.23c2.36,15.76,14.78,28,27.75,27.27S190,141.08,187.67,126l-.63-4L183.5,99.16C181.16,84.05,168.73,71.59,155.75,71.32Z"/><path class="cls-1" d="M292.43,74.14c-13-.27-21.62,10.76-19.29,24.64l3.51,20.9.62,3.72C279.6,137.27,292,148,305,147.25s21.61-12,19.29-25.2l-.63-3.55-3.49-19.92C317.82,85.35,305.41,74.41,292.43,74.14Z"/><path class="cls-2" d="M370,123.73a51,51,0,0,0-24.89-4.62l-12.49.35a31.36,31.36,0,0,1,1.07,5.87c.24,2.58.93,13.22-6.41,21.89-11.25,13.31-30.29,8.85-31.5,8.55-13.14-3.31-23.33-14.82-26.17-29.37-.17-1.78-.35-3.56-.53-5.34l-71.55,2.13c.35,1.78.71,3.56,1.06,5.34.13,1.09,2.07,19.84-11.74,30.3-9.73,7.37-20.86,5.78-23,5.48-15.29-2.18-28.3-15.94-33.11-34.71-.36-1.78-.71-3.56-1.07-5.34a40.82,40.82,0,0,0-13.37.37c-15,2.94-23.64,13.63-26.14,16.72C73.79,161.57,81.2,189,82,191.9q10.45,75.76,20.9,151.52Q112.1,402.69,121.29,462c1.91,8.63,7.13,26.16,22.32,35.55s33.09,6,43.74,3.59c38.14-8.57,117.1-33.15,217.87-69.26a49.58,49.58,0,0,0,13.17-5.4,43.14,43.14,0,0,0,20.86-47.31Q420,274.66,400.8,170.2C400.43,167.24,396.07,136.09,370,123.73ZM156.15,463.83q-3.66-24.93-7.33-49.84-14.48-98.28-28.94-196.56l251.29-24L406.79,392.8,213.86,447.47Z"/><path class="cls-1" d="M289.33,287.18a10.75,10.75,0,0,0,9,2.31l50.77-8.66a10.33,10.33,0,0,0,8.08-4.18,10.08,10.08,0,0,0,1.49-7.72q-3.48-18.78-6.94-37.55a11.47,11.47,0,0,0-4.49-6.77,11.64,11.64,0,0,0-8.93-1.79L288,227.61a9.94,9.94,0,0,0-8.61,11.62q3.27,20.39,6.53,40.77A10.48,10.48,0,0,0,289.33,287.18Z"/><path class="cls-1" d="M252.49,292.44a13.53,13.53,0,0,0,1.5-8.88q-2.91-20.08-5.81-40.17a12.83,12.83,0,0,0-4.46-8.25c-5.09-4.17-11.4-2.33-11.91-2.17l-64.26,6.12c-.51,0-7.51.51-11,6.57a13.41,13.41,0,0,0-1.17,9.94q3.17,21.84,6.32,43.69a12,12,0,0,0,14.93,11l64.88-11.07C242.22,299.12,249.08,298.43,252.49,292.44Z"/><path class="cls-1" d="M298.1,331.62a13.33,13.33,0,0,0-2.34,8.77q3.11,19.64,6.2,39.26a11.27,11.27,0,0,0,3.16,8.11A11.39,11.39,0,0,0,317.06,390l49-13.83a13.34,13.34,0,0,0,8-6,13.18,13.18,0,0,0,1.54-9.09L369,324.9a11.06,11.06,0,0,0-4.8-7.31,11.28,11.28,0,0,0-9.78-.87l-47.7,9.57A13.44,13.44,0,0,0,298.1,331.62Z"/><path class="cls-1" d="M254.83,341a18.53,18.53,0,0,0-11.7-1.76l-53,10.46c-.8,0-11.23.78-16,9.43a18,18,0,0,0-2,10.63q3.25,22.06,6.5,44.12a14,14,0,0,0,3.71,6.65c6.09,5.93,15.49,3.18,15.92,3.05l57.49-16.22A16.61,16.61,0,0,0,269,387.07q-2.52-17.47-5-34.94A18.86,18.86,0,0,0,254.83,341Z"/><path class="cls-1" d="M120.65,493.24a58.29,58.29,0,0,1-11.91-28.44Q86.27,318.07,63.81,171.34a8.85,8.85,0,0,0-17.51,1.28L92.89,468.68c1.2,9.08,4.48,22.15,13.88,34.17,18,23,51,32.52,84.9,25.63l215.82-66.09a7.86,7.86,0,1,0-4.26-15L187.4,514.07C185.59,514.41,143.46,521.66,120.65,493.24Z"/><text class="cls-3" transform="translate(547.72 372.16)">Daily Planify</text></g></svg>