<svg xmlns="http://www.w3.org/2000/svg" viewBox="0 0 1000 1000"><defs><style>.cls-1{fill:#1d601b;}.cls-2{fill:#fff;}.cls-3{fill:#298826;}</style></defs><g id="Calque_3" data-name="Calque 3"><path class="cls-1" d="M315.11,15c-27.41-.57-45.6,25.94-40.63,59.22L282,124.34l1.33,8.92c5,33.28,31.21,59.05,58.59,57.58s45.57-28.52,40.62-60.42l-1.33-8.56L373.72,73.8C368.76,41.9,342.52,15.58,315.11,15Z"/><path class="cls-1" d="M603.73,21C576.31,20.41,558.08,43.7,563,73l7.4,44.13,1.32,7.86c4.92,29.3,31.11,51.85,58.49,50.38s45.62-25.3,40.72-53.23l-1.32-7.49-7.38-42.07C657.34,44.64,631.14,21.54,603.73,21Z"/><path class="cls-2" d="M883.06,718.08,308.47,855.4q-45.17-270.12-90.34-540.25l574.58-57.82Q837.89,487.72,883.06,718.08Z"/><path class="cls-3" d="M767.56,125.68c-20.38-9.67-39.9-10.5-52.55-9.75l-26.37.73a68.13,68.13,0,0,1,2.25,12.4c.5,5.45,2,27.92-13.53,46.23-23.76,28.09-64,18.68-66.52,18-27.75-7-49.26-31.29-55.25-62q-.57-5.62-1.13-11.27l-151.09,4.51q1.13,5.64,2.26,11.27c.27,2.3,4.37,41.88-24.81,64-20.54,15.55-44,12.2-48.48,11.57-32.28-4.6-59.75-33.66-69.91-73.29q-1.12-5.64-2.26-11.28a86.14,86.14,0,0,0-28.23.78c-31.57,6.21-49.91,28.79-55.2,35.31-34.68,42.69-19.05,100.63-17.3,106.74q22,160,44.12,320,19.38,125.14,38.78,250.29c4,18.24,15.07,55.24,47.15,75.08,32.28,20,69.87,12.64,92.34,7.58,80.54-18.1,247.27-70,460.07-146.25a105.23,105.23,0,0,0,27.8-11.4c6.95-4.07,26.12-16,37.68-40.48,12.58-26.6,8.18-51.32,6.37-59.43q-40.59-220.59-81.2-441.17C831.78,217.55,822.56,151.77,767.56,125.68ZM316,843.82q-7.74-52.62-15.49-105.24-30.54-207.52-61.09-415.05L770,273l75.22,420.89L437.82,809.29Z"/><path class="cls-1" d="M597.18,470.82c7.94,7,17.86,5.11,19,4.88l107.21-18.29c1,0,11.09-.22,17.06-8.82a21.25,21.25,0,0,0,3.13-16.3q-7.32-39.66-14.63-79.3a24.32,24.32,0,0,0-9.49-14.29,24.58,24.58,0,0,0-18.87-3.79L594.36,345a21,21,0,0,0-18.17,24.54q6.88,43.05,13.78,86.09A22.23,22.23,0,0,0,597.18,470.82Z"/><path class="cls-1" d="M519.39,481.93a28.57,28.57,0,0,0,3.16-18.76q-6.12-42.42-12.26-84.82a27.19,27.19,0,0,0-9.42-17.43c-10.75-8.79-24.07-4.91-25.16-4.57L340,369.28c-1.07.06-15.86,1.07-23.14,13.87a28.27,28.27,0,0,0-2.47,21q6.68,46.13,13.34,92.24c.09,1.46.86,12,10.12,18.89,9.47,7.08,20,4.61,21.4,4.26l137-23.38C497.7,496,512.18,494.57,519.39,481.93Z"/><path class="cls-1" d="M615.7,564.66a28.06,28.06,0,0,0-4.94,18.52q6.56,41.45,13.09,82.89c0,1.72-.06,10.5,6.67,17.13,6.35,6.26,16.21,8.13,25.22,4.81l103.51-29.2A27.34,27.34,0,0,0,779.48,627l-14.12-76.49A23.33,23.33,0,0,0,755.23,535c-9.53-6.07-19.63-2.24-20.64-1.83L633.87,553.41A28.29,28.29,0,0,0,615.7,564.66Z"/><path class="cls-1" d="M524.33,584.42a39.11,39.11,0,0,0-24.7-3.71L387.74,602.79c-1.7.09-23.73,1.65-33.81,19.9a38.17,38.17,0,0,0-4.27,22.46q6.87,46.59,13.72,93.17a29.25,29.25,0,0,0,7.84,14c12.86,12.53,32.7,6.74,33.61,6.46l121.4-34.25c2.12-.39,16.06-3.22,24-16.66a36,36,0,0,0,3.91-26.14q-5.34-36.9-10.67-73.79C542.73,605.39,538.43,591.78,524.33,584.42Z"/><path class="cls-1" d="M241,905.93c-17.2-21.43-23-44.78-25.16-60Q168.42,536,121,226.21a18.67,18.67,0,0,0-37,2.7q49.18,312.57,98.36,625.15c2.54,19.19,9.47,46.79,29.32,72.17C249.76,974.9,319.33,994.9,391,980.35L846.69,840.78c10.37-2.07,16.29-12.73,13.33-21.67-2.81-8.48-13-13.53-22.34-10L382,949.9C378.13,950.62,289.15,965.94,241,905.93Z"/></g></svg>